solid Exported from Blender-2.79 (sub 0)
facet normal 0.781085 0.170840 0.600599
outer loop
vertex 0.730928 -1.277964 0.014828
vertex 0.553218 -1.304844 0.253587
vertex 0.622539 -1.363425 0.180098
endloop
endfacet
facet normal 0.781096 0.170835 0.600587
outer loop
vertex 0.622539 -1.363425 0.180098
vertex 0.731902 -1.282419 0.014828
vertex 0.730928 -1.277964 0.014828
endloop
endfacet
facet normal 0.775270 0.198999 0.599463
outer loop
vertex 0.553218 -1.304844 0.253587
vertex 0.730928 -1.277964 0.014828
vertex 0.729815 -1.273628 0.014828
endloop
endfacet
facet normal 0.775287 0.198969 0.599450
outer loop
vertex 0.729815 -1.273628 0.014828
vertex 0.605178 -1.235738 0.163448
vertex 0.553218 -1.304844 0.253587
endloop
endfacet
facet normal -0.090691 -0.818672 0.567055
outer loop
vertex 0.553218 -1.304844 0.253587
vertex 0.388278 -1.333477 0.185868
vertex 0.622539 -1.363425 0.180098
endloop
endfacet
facet normal 0.846717 -0.376834 0.375589
outer loop
vertex 0.731902 -1.282419 0.014828
vertex 0.622539 -1.363425 0.180098
vertex 0.671719 -1.417646 0.014828
endloop
endfacet
facet normal 0.380757 0.920801 0.084558
outer loop
vertex 0.486863 -1.173166 0.014828
vertex 0.605178 -1.235738 0.163448
vertex 0.729815 -1.273628 0.014828
endloop
endfacet
facet normal 0.371288 0.621104 0.690199
outer loop
vertex 0.437587 -1.105849 0.136717
vertex 0.553218 -1.304844 0.253587
vertex 0.605178 -1.235738 0.163448
endloop
endfacet
facet normal -0.333282 -0.237844 0.912334
outer loop
vertex 0.388278 -1.333477 0.185868
vertex 0.553218 -1.304844 0.253587
vertex 0.242331 -1.128097 0.186095
endloop
endfacet
facet normal -0.125775 -0.991303 0.038710
outer loop
vertex 0.431644 -1.345658 0.014828
vertex 0.622539 -1.363425 0.180098
vertex 0.388278 -1.333477 0.185868
endloop
endfacet
facet normal -0.125772 -0.991304 0.038708
outer loop
vertex 0.388278 -1.333477 0.185868
vertex 0.414131 -1.343436 0.014828
vertex 0.431644 -1.345658 0.014828
endloop
endfacet
facet normal -0.279988 -0.933739 0.223022
outer loop
vertex 0.671719 -1.417646 0.014828
vertex 0.622539 -1.363425 0.180098
vertex 0.431644 -1.345658 0.014828
endloop
endfacet
facet normal 0.620454 0.765199 -0.171774
outer loop
vertex 0.470801 -1.160143 0.014828
vertex 0.437587 -1.105849 0.136717
vertex 0.605178 -1.235738 0.163448
endloop
endfacet
facet normal 0.620455 0.765197 -0.171780
outer loop
vertex 0.605178 -1.235738 0.163448
vertex 0.486863 -1.173166 0.014828
vertex 0.470801 -1.160143 0.014828
endloop
endfacet
facet normal 0.142196 0.561412 0.815228
outer loop
vertex 0.553218 -1.304844 0.253587
vertex 0.437587 -1.105849 0.136717
vertex 0.242331 -1.128097 0.186095
endloop
endfacet
facet normal -0.491723 -0.350307 0.797178
outer loop
vertex 0.388278 -1.333477 0.185868
vertex 0.242331 -1.128097 0.186095
vertex 0.191168 -1.267653 0.093211
endloop
endfacet
facet normal -0.319642 -0.947513 0.006857
outer loop
vertex 0.414131 -1.343436 0.014828
vertex 0.388278 -1.333477 0.185868
vertex 0.191168 -1.267653 0.093211
endloop
endfacet
facet normal -0.319646 -0.947512 0.006855
outer loop
vertex 0.191168 -1.267653 0.093211
vertex 0.383292 -1.333033 0.014828
vertex 0.414131 -1.343436 0.014828
endloop
endfacet
facet normal 0.461391 0.850344 -0.253049
outer loop
vertex 0.430151 -1.138086 0.014828
vertex 0.264362 -1.031558 0.070517
vertex 0.437587 -1.105849 0.136717
endloop
endfacet
facet normal 0.461390 0.850344 -0.253048
outer loop
vertex 0.437587 -1.105849 0.136717
vertex 0.470801 -1.160143 0.014828
vertex 0.430151 -1.138086 0.014828
endloop
endfacet
facet normal 0.077467 0.757871 0.647789
outer loop
vertex 0.437587 -1.105849 0.136717
vertex 0.264362 -1.031558 0.070517
vertex 0.242331 -1.128097 0.186095
endloop
endfacet
facet normal -0.190507 -0.494565 0.848005
outer loop
vertex 0.242331 -1.128097 0.186095
vertex 0.031788 -1.066133 0.174934
vertex 0.191168 -1.267653 0.093211
endloop
endfacet
facet normal -0.377569 -0.911066 -0.165530
outer loop
vertex 0.383292 -1.333033 0.014828
vertex 0.191168 -1.267653 0.093211
vertex 0.094360 -1.213292 0.014828
endloop
endfacet
facet normal 0.433527 0.842229 -0.320477
outer loop
vertex 0.231028 -1.035590 0.014828
vertex 0.264362 -1.031558 0.070517
vertex 0.430151 -1.138086 0.014828
endloop
endfacet
facet normal 0.481980 0.625080 0.613978
outer loop
vertex 0.102472 -1.004306 0.169857
vertex 0.242331 -1.128097 0.186095
vertex 0.264362 -1.031558 0.070517
endloop
endfacet
facet normal -0.021456 0.106163 0.994117
outer loop
vertex 0.242331 -1.128097 0.186095
vertex 0.102472 -1.004306 0.169857
vertex 0.031788 -1.066133 0.174934
endloop
endfacet
facet normal -0.536246 -0.644933 0.544520
outer loop
vertex 0.191168 -1.267653 0.093211
vertex 0.031788 -1.066133 0.174934
vertex -0.155743 -0.960938 0.114845
endloop
endfacet
facet normal -0.628280 -0.729660 0.269927
outer loop
vertex 0.094360 -1.213292 0.014828
vertex 0.191168 -1.267653 0.093211
vertex -0.155743 -0.960938 0.114845
endloop
endfacet
facet normal -0.628278 -0.729658 0.269938
outer loop
vertex -0.155743 -0.960938 0.114845
vertex 0.045730 -1.171419 0.014828
vertex 0.094360 -1.213292 0.014828
endloop
endfacet
facet normal 0.477571 0.808286 -0.344383
outer loop
vertex 0.206003 -1.020804 0.014828
vertex 0.111778 -0.929287 0.098959
vertex 0.264362 -1.031558 0.070517
endloop
endfacet
facet normal 0.477571 0.808287 -0.344380
outer loop
vertex 0.264362 -1.031558 0.070517
vertex 0.231028 -1.035590 0.014828
vertex 0.206003 -1.020804 0.014828
endloop
endfacet
facet normal 0.499376 0.561562 0.659752
outer loop
vertex 0.264362 -1.031558 0.070517
vertex 0.111778 -0.929287 0.098959
vertex 0.102472 -1.004306 0.169857
endloop
endfacet
facet normal 0.313158 -0.283591 0.906371
outer loop
vertex -0.050872 -0.775969 0.294282
vertex 0.031788 -1.066133 0.174934
vertex 0.102472 -1.004306 0.169857
endloop
endfacet
facet normal -0.539483 -0.778472 0.320842
outer loop
vertex -0.155743 -0.960938 0.114845
vertex 0.031788 -1.066133 0.174934
vertex -0.110896 -0.927490 0.271410
endloop
endfacet
facet normal -0.737919 -0.670712 -0.074980
outer loop
vertex 0.045730 -1.171419 0.014828
vertex -0.155743 -0.960938 0.114845
vertex -0.082984 -1.029808 0.014828
endloop
endfacet
facet normal 0.583175 0.786676 -0.202601
outer loop
vertex -0.022331 -0.851536 0.014828
vertex 0.111778 -0.929287 0.098959
vertex 0.206003 -1.020804 0.014828
endloop
endfacet
facet normal 0.801943 0.354770 0.480652
outer loop
vertex 0.102472 -1.004306 0.169857
vertex 0.111778 -0.929287 0.098959
vertex 0.006986 -0.790422 0.171303
endloop
endfacet
facet normal 0.853798 0.378756 0.357173
outer loop
vertex 0.006986 -0.790422 0.171303
vertex -0.050872 -0.775969 0.294282
vertex 0.102472 -1.004306 0.169857
endloop
endfacet
facet normal 0.343658 -0.271827 0.898893
outer loop
vertex 0.031788 -1.066133 0.174934
vertex -0.050872 -0.775969 0.294282
vertex -0.110896 -0.927490 0.271410
endloop
endfacet
facet normal -0.839192 -0.430470 0.332344
outer loop
vertex -0.155743 -0.960938 0.114845
vertex -0.110896 -0.927490 0.271410
vertex -0.227879 -0.709922 0.257827
endloop
endfacet
facet normal -0.857359 -0.264651 -0.441470
outer loop
vertex -0.082984 -1.029808 0.014828
vertex -0.155743 -0.960938 0.114845
vertex -0.155058 -0.796318 0.014828
endloop
endfacet
facet normal 0.631053 0.675197 -0.381945
outer loop
vertex -0.040493 -0.834562 0.014828
vertex 0.006986 -0.790422 0.171303
vertex 0.111778 -0.929287 0.098959
endloop
endfacet
facet normal 0.631051 0.675193 -0.381953
outer loop
vertex 0.111778 -0.929287 0.098959
vertex -0.022331 -0.851536 0.014828
vertex -0.040493 -0.834562 0.014828
endloop
endfacet
facet normal 0.905905 0.062111 0.418901
outer loop
vertex 0.006986 -0.790422 0.171303
vertex -0.093946 -0.494144 0.345645
vertex -0.050872 -0.775969 0.294282
endloop
endfacet
facet normal 0.104950 -0.188957 0.976361
outer loop
vertex -0.050872 -0.775969 0.294282
vertex -0.123974 -0.810546 0.295448
vertex -0.110896 -0.927490 0.271410
endloop
endfacet
facet normal -0.957473 -0.287685 0.021999
outer loop
vertex -0.155743 -0.960938 0.114845
vertex -0.227879 -0.709922 0.257827
vertex -0.274724 -0.557507 0.212114
endloop
endfacet
facet normal -0.518650 -0.227415 0.824188
outer loop
vertex -0.123974 -0.810546 0.295448
vertex -0.227879 -0.709922 0.257827
vertex -0.110896 -0.927490 0.271410
endloop
endfacet
facet normal -0.556190 -0.429824 -0.711269
outer loop
vertex -0.155058 -0.796318 0.014828
vertex -0.155743 -0.960938 0.114845
vertex -0.186513 -0.755615 0.014828
endloop
endfacet
facet normal 0.956811 -0.153091 -0.247136
outer loop
vertex -0.028903 -0.762130 0.014828
vertex 0.006986 -0.790422 0.171303
vertex -0.040493 -0.834562 0.014828
endloop
endfacet
facet normal 0.957420 0.208905 0.199264
outer loop
vertex 0.006986 -0.790422 0.171303
vertex -0.073957 -0.473152 0.227595
vertex -0.093946 -0.494144 0.345645
endloop
endfacet
facet normal 0.348546 -0.116234 0.930056
outer loop
vertex -0.177937 -0.583246 0.365986
vertex -0.050872 -0.775969 0.294282
vertex -0.093946 -0.494144 0.345645
endloop
endfacet
facet normal 0.139666 -0.263088 0.954609
outer loop
vertex -0.050872 -0.775969 0.294282
vertex -0.177937 -0.583246 0.365986
vertex -0.123974 -0.810546 0.295448
endloop
endfacet
facet normal -0.953186 -0.235337 -0.189875
outer loop
vertex -0.186513 -0.755615 0.014828
vertex -0.155743 -0.960938 0.114845
vertex -0.274724 -0.557507 0.212114
endloop
endfacet
facet normal -0.953186 -0.235338 -0.189876
outer loop
vertex -0.274724 -0.557507 0.212114
vertex -0.193458 -0.727487 0.014828
vertex -0.186513 -0.755615 0.014828
endloop
endfacet
facet normal -0.849593 -0.106172 0.516642
outer loop
vertex -0.177937 -0.583246 0.365986
vertex -0.274724 -0.557507 0.212114
vertex -0.227879 -0.709922 0.257827
endloop
endfacet
facet normal -0.607632 -0.363412 0.706198
outer loop
vertex -0.227879 -0.709922 0.257827
vertex -0.123974 -0.810546 0.295448
vertex -0.177937 -0.583246 0.365986
endloop
endfacet
facet normal 0.747886 0.661797 -0.051874
outer loop
vertex -0.054226 -0.733513 0.014828
vertex -0.087870 -0.693730 0.037320
vertex 0.006986 -0.790422 0.171303
endloop
endfacet
facet normal 0.747887 0.661797 -0.051873
outer loop
vertex 0.006986 -0.790422 0.171303
vertex -0.028903 -0.762130 0.014828
vertex -0.054226 -0.733513 0.014828
endloop
endfacet
facet normal 0.867249 0.292711 -0.402740
outer loop
vertex -0.087870 -0.693730 0.037320
vertex -0.073957 -0.473152 0.227595
vertex 0.006986 -0.790422 0.171303
endloop
endfacet
facet normal 0.807796 -0.588587 0.032118
outer loop
vertex -0.073957 -0.473152 0.227595
vertex 0.148286 -0.169660 0.199720
vertex -0.093946 -0.494144 0.345645
endloop
endfacet
facet normal 0.618672 -0.433626 0.655143
outer loop
vertex -0.177937 -0.583246 0.365986
vertex -0.093946 -0.494144 0.345645
vertex -0.011496 -0.278081 0.410793
endloop
endfacet
facet normal -0.884869 -0.464472 0.035688
outer loop
vertex -0.193458 -0.727487 0.014828
vertex -0.274724 -0.557507 0.212114
vertex -0.291298 -0.541091 0.014828
endloop
endfacet
facet normal -0.773093 -0.488520 0.404567
outer loop
vertex -0.177937 -0.583246 0.365986
vertex -0.276588 -0.440866 0.349399
vertex -0.274724 -0.557507 0.212114
endloop
endfacet
facet normal 0.756311 0.315617 0.573044
outer loop
vertex -0.065367 -0.706815 0.014828
vertex -0.084160 -0.676914 0.023163
vertex -0.087870 -0.693730 0.037320
endloop
endfacet
facet normal 0.756310 0.315616 0.573046
outer loop
vertex -0.087870 -0.693730 0.037320
vertex -0.054226 -0.733513 0.014828
vertex -0.065367 -0.706815 0.014828
endloop
endfacet
facet normal 0.985841 -0.140771 0.091106
outer loop
vertex -0.087870 -0.693730 0.037320
vertex -0.084160 -0.676914 0.023163
vertex -0.073957 -0.473152 0.227595
endloop
endfacet
facet normal 0.806905 -0.581207 0.105364
outer loop
vertex 0.030443 -0.366783 0.014828
vertex 0.148286 -0.169660 0.199720
vertex -0.073957 -0.473152 0.227595
endloop
endfacet
facet normal 0.806905 -0.581208 0.105363
outer loop
vertex -0.073957 -0.473152 0.227595
vertex 0.015003 -0.388218 0.014828
vertex 0.030443 -0.366783 0.014828
endloop
endfacet
facet normal 0.812496 -0.429051 0.394671
outer loop
vertex -0.093946 -0.494144 0.345645
vertex 0.148286 -0.169660 0.199720
vertex -0.011496 -0.278081 0.410793
endloop
endfacet
facet normal 0.324602 -0.308334 0.894183
outer loop
vertex -0.225939 -0.218022 0.509349
vertex -0.177937 -0.583246 0.365986
vertex -0.011496 -0.278081 0.410793
endloop
endfacet
facet normal -0.469796 -0.882123 -0.033935
outer loop
vertex -0.291298 -0.541091 0.014828
vertex -0.274724 -0.557507 0.212114
vertex -0.406043 -0.479981 0.014828
endloop
endfacet
facet normal -0.628073 -0.354468 0.692732
outer loop
vertex -0.225939 -0.218022 0.509349
vertex -0.276588 -0.440866 0.349399
vertex -0.177937 -0.583246 0.365986
endloop
endfacet
facet normal -0.815948 -0.445996 0.367855
outer loop
vertex -0.406043 -0.479981 0.014828
vertex -0.274724 -0.557507 0.212114
vertex -0.276588 -0.440866 0.349399
endloop
endfacet
facet normal -0.815940 -0.446010 0.367855
outer loop
vertex -0.276588 -0.440866 0.349399
vertex -0.408361 -0.475740 0.014828
vertex -0.406043 -0.479981 0.014828
endloop
endfacet
facet normal 0.558700 0.122507 0.820272
outer loop
vertex -0.076918 -0.654139 0.014828
vertex -0.084160 -0.676914 0.023163
vertex -0.065367 -0.706815 0.014828
endloop
endfacet
facet normal 0.964332 -0.209979 0.161160
outer loop
vertex -0.073957 -0.473152 0.227595
vertex -0.084160 -0.676914 0.023163
vertex -0.040984 -0.412564 0.109240
endloop
endfacet
facet normal 0.891095 -0.443808 -0.094784
outer loop
vertex 0.118749 -0.189479 0.014828
vertex 0.148286 -0.169660 0.199720
vertex 0.030443 -0.366783 0.014828
endloop
endfacet
facet normal -0.545225 -0.674817 -0.497345
outer loop
vertex 0.015003 -0.388218 0.014828
vertex -0.073957 -0.473152 0.227595
vertex -0.040984 -0.412564 0.109240
endloop
endfacet
facet normal -0.545222 -0.674821 -0.497342
outer loop
vertex -0.040984 -0.412564 0.109240
vertex 0.012788 -0.386428 0.014828
vertex 0.015003 -0.388218 0.014828
endloop
endfacet
facet normal 0.825436 -0.166248 0.539459
outer loop
vertex 0.148286 -0.169660 0.199720
vertex 0.084450 0.009358 0.352567
vertex -0.011496 -0.278081 0.410793
endloop
endfacet
facet normal 0.339895 -0.266442 0.901931
outer loop
vertex -0.011496 -0.278081 0.410793
vertex -0.090657 -0.041468 0.510524
vertex -0.225939 -0.218022 0.509349
endloop
endfacet
facet normal -0.329299 -0.500047 0.800946
outer loop
vertex -0.225939 -0.218022 0.509349
vertex -0.408273 -0.242836 0.418892
vertex -0.276588 -0.440866 0.349399
endloop
endfacet
facet normal -0.266599 -0.942143 0.203206
outer loop
vertex -0.408361 -0.475740 0.014828
vertex -0.276588 -0.440866 0.349399
vertex -0.488033 -0.398512 0.268362
endloop
endfacet
facet normal -0.266601 -0.942143 0.203199
outer loop
vertex -0.488033 -0.398512 0.268362
vertex -0.414205 -0.474086 0.014828
vertex -0.408361 -0.475740 0.014828
endloop
endfacet
facet normal 0.950963 -0.224574 0.212690
outer loop
vertex -0.060737 -0.585621 0.014828
vertex -0.040984 -0.412564 0.109240
vertex -0.084160 -0.676914 0.023163
endloop
endfacet
facet normal 0.950962 -0.224574 0.212691
outer loop
vertex -0.084160 -0.676914 0.023163
vertex -0.076918 -0.654139 0.014828
vertex -0.060737 -0.585621 0.014828
endloop
endfacet
facet normal 0.958888 0.221850 -0.176966
outer loop
vertex 0.114361 -0.170514 0.014828
vertex 0.078001 0.175216 0.251229
vertex 0.148286 -0.169660 0.199720
endloop
endfacet
facet normal 0.958887 0.221851 -0.176966
outer loop
vertex 0.148286 -0.169660 0.199720
vertex 0.118749 -0.189479 0.014828
vertex 0.114361 -0.170514 0.014828
endloop
endfacet
facet normal 0.859174 -0.317133 0.401554
outer loop
vertex 0.012788 -0.386428 0.014828
vertex -0.040984 -0.412564 0.109240
vertex -0.060737 -0.585621 0.014828
endloop
endfacet
facet normal 0.963848 0.165207 0.209056
outer loop
vertex 0.148286 -0.169660 0.199720
vertex 0.078001 0.175216 0.251229
vertex 0.084450 0.009358 0.352567
endloop
endfacet
facet normal 0.680314 -0.079494 0.728597
outer loop
vertex 0.084450 0.009358 0.352567
vertex -0.090657 -0.041468 0.510524
vertex -0.011496 -0.278081 0.410793
endloop
endfacet
facet normal 0.064900 -0.056360 0.996299
outer loop
vertex -0.225939 -0.218022 0.509349
vertex -0.090657 -0.041468 0.510524
vertex -0.324927 0.503939 0.556638
endloop
endfacet
facet normal -0.408408 -0.224390 0.884789
outer loop
vertex -0.362249 -0.150371 0.463586
vertex -0.408273 -0.242836 0.418892
vertex -0.225939 -0.218022 0.509349
endloop
endfacet
facet normal -0.394163 -0.526463 0.753307
outer loop
vertex -0.408273 -0.242836 0.418892
vertex -0.488033 -0.398512 0.268362
vertex -0.276588 -0.440866 0.349399
endloop
endfacet
facet normal -0.854555 -0.510271 -0.096740
outer loop
vertex -0.414205 -0.474086 0.014828
vertex -0.488033 -0.398512 0.268362
vertex -0.606337 -0.152320 0.014828
endloop
endfacet
facet normal 0.995513 0.093086 0.016982
outer loop
vertex 0.089327 0.097213 0.014828
vertex 0.078001 0.175216 0.251229
vertex 0.114361 -0.170514 0.014828
endloop
endfacet
facet normal 0.646130 0.416065 0.639849
outer loop
vertex 0.078001 0.175216 0.251229
vertex -0.111224 0.124958 0.474992
vertex 0.084450 0.009358 0.352567
endloop
endfacet
facet normal 0.611986 0.236738 0.754605
outer loop
vertex -0.111224 0.124958 0.474992
vertex -0.090657 -0.041468 0.510524
vertex 0.084450 0.009358 0.352567
endloop
endfacet
facet normal 0.157854 -0.042975 0.986527
outer loop
vertex -0.225939 -0.218022 0.509349
vertex -0.324927 0.503939 0.556638
vertex -0.341018 0.016720 0.537988
endloop
endfacet
facet normal 0.678656 0.232604 0.696651
outer loop
vertex -0.111224 0.124958 0.474992
vertex -0.324927 0.503939 0.556638
vertex -0.090657 -0.041468 0.510524
endloop
endfacet
facet normal -0.439829 -0.318087 0.839864
outer loop
vertex -0.362249 -0.150371 0.463586
vertex -0.225939 -0.218022 0.509349
vertex -0.341018 0.016720 0.537988
endloop
endfacet
facet normal -0.447257 -0.198878 0.872014
outer loop
vertex -0.362249 -0.150371 0.463586
vertex -0.561792 -0.065080 0.380692
vertex -0.408273 -0.242836 0.418892
endloop
endfacet
facet normal -0.495743 -0.458942 0.737300
outer loop
vertex -0.488033 -0.398512 0.268362
vertex -0.408273 -0.242836 0.418892
vertex -0.602883 -0.269340 0.271544
endloop
endfacet
facet normal -0.720973 -0.634154 -0.279368
outer loop
vertex -0.606337 -0.152320 0.014828
vertex -0.488033 -0.398512 0.268362
vertex -0.602883 -0.269340 0.271544
endloop
endfacet
facet normal -0.720977 -0.634150 -0.279368
outer loop
vertex -0.602883 -0.269340 0.271544
vertex -0.612694 -0.145093 0.014828
vertex -0.606337 -0.152320 0.014828
endloop
endfacet
facet normal 0.679409 0.705875 -0.200362
outer loop
vertex -0.067160 0.247833 0.014828
vertex 0.078001 0.175216 0.251229
vertex 0.089327 0.097213 0.014828
endloop
endfacet
facet normal 0.594304 0.514505 0.618132
outer loop
vertex -0.111224 0.124958 0.474992
vertex 0.078001 0.175216 0.251229
vertex -0.024713 0.246970 0.290258
endloop
endfacet
facet normal -0.287475 -0.027153 0.957403
outer loop
vertex -0.341018 0.016720 0.537988
vertex -0.324927 0.503939 0.556638
vertex -0.392959 0.299988 0.530426
endloop
endfacet
facet normal 0.457610 0.067031 0.886623
outer loop
vertex -0.111224 0.124958 0.474992
vertex -0.201274 0.598023 0.485704
vertex -0.324927 0.503939 0.556638
endloop
endfacet
facet normal -0.743335 -0.191003 0.641070
outer loop
vertex -0.516926 0.102327 0.359525
vertex -0.362249 -0.150371 0.463586
vertex -0.341018 0.016720 0.537988
endloop
endfacet
facet normal -0.302264 0.198884 0.932245
outer loop
vertex -0.561792 -0.065080 0.380692
vertex -0.362249 -0.150371 0.463586
vertex -0.516926 0.102327 0.359525
endloop
endfacet
facet normal -0.547888 -0.305855 0.778634
outer loop
vertex -0.408273 -0.242836 0.418892
vertex -0.561792 -0.065080 0.380692
vertex -0.602883 -0.269340 0.271544
endloop
endfacet
facet normal -0.997318 -0.073144 0.002717
outer loop
vertex -0.612694 -0.145093 0.014828
vertex -0.602883 -0.269340 0.271544
vertex -0.626975 0.057642 0.230680
endloop
endfacet
facet normal -0.997318 -0.073134 0.002718
outer loop
vertex -0.626975 0.057642 0.230680
vertex -0.614144 -0.125333 0.014828
vertex -0.612694 -0.145093 0.014828
endloop
endfacet
facet normal 0.549596 0.831387 -0.082097
outer loop
vertex -0.072903 0.251629 0.014828
vertex -0.024713 0.246970 0.290258
vertex 0.078001 0.175216 0.251229
endloop
endfacet
facet normal 0.549594 0.831389 -0.082092
outer loop
vertex 0.078001 0.175216 0.251229
vertex -0.067160 0.247833 0.014828
vertex -0.072903 0.251629 0.014828
endloop
endfacet
facet normal 0.853141 0.151092 0.499320
outer loop
vertex -0.111224 0.124958 0.474992
vertex -0.024713 0.246970 0.290258
vertex -0.201274 0.598023 0.485704
endloop
endfacet
facet normal -0.661852 -0.101531 0.742727
outer loop
vertex -0.392959 0.299988 0.530426
vertex -0.480305 0.241613 0.444611
vertex -0.341018 0.016720 0.537988
endloop
endfacet
facet normal -0.345306 -0.005430 0.938474
outer loop
vertex -0.426587 0.476509 0.519074
vertex -0.392959 0.299988 0.530426
vertex -0.324927 0.503939 0.556638
endloop
endfacet
facet normal 0.624087 -0.266438 0.734525
outer loop
vertex -0.324927 0.503939 0.556638
vertex -0.201274 0.598023 0.485704
vertex -0.250056 0.899933 0.636665
endloop
endfacet
facet normal -0.743675 -0.195093 0.639442
outer loop
vertex -0.341018 0.016720 0.537988
vertex -0.480305 0.241613 0.444611
vertex -0.516926 0.102327 0.359525
endloop
endfacet
facet normal -0.775807 0.279452 0.565713
outer loop
vertex -0.626975 0.057642 0.230680
vertex -0.561792 -0.065080 0.380692
vertex -0.516926 0.102327 0.359525
endloop
endfacet
facet normal -0.922831 -0.019919 0.384689
outer loop
vertex -0.561792 -0.065080 0.380692
vertex -0.626975 0.057642 0.230680
vertex -0.602883 -0.269340 0.271544
endloop
endfacet
facet normal -0.969462 0.155618 -0.189544
outer loop
vertex -0.614144 -0.125333 0.014828
vertex -0.626975 0.057642 0.230680
vertex -0.593115 0.148284 0.131917
endloop
endfacet
facet normal -0.969460 0.155621 -0.189550
outer loop
vertex -0.593115 0.148284 0.131917
vertex -0.610996 -0.105721 0.014828
vertex -0.614144 -0.125333 0.014828
endloop
endfacet
facet normal 0.959923 0.227191 -0.164109
outer loop
vertex -0.076780 0.268011 0.014828
vertex -0.107421 0.579681 0.267074
vertex -0.024713 0.246970 0.290258
endloop
endfacet
facet normal 0.959923 0.227191 -0.164109
outer loop
vertex -0.024713 0.246970 0.290258
vertex -0.072903 0.251629 0.014828
vertex -0.076780 0.268011 0.014828
endloop
endfacet
facet normal 0.897470 0.248495 0.364415
outer loop
vertex -0.201274 0.598023 0.485704
vertex -0.024713 0.246970 0.290258
vertex -0.107421 0.579681 0.267074
endloop
endfacet
facet normal -0.670717 -0.080358 0.737347
outer loop
vertex -0.426587 0.476509 0.519074
vertex -0.480305 0.241613 0.444611
vertex -0.392959 0.299988 0.530426
endloop
endfacet
facet normal -0.158894 -0.541588 0.825491
outer loop
vertex -0.426587 0.476509 0.519074
vertex -0.324927 0.503939 0.556638
vertex -0.404955 0.703997 0.672488
endloop
endfacet
facet normal 0.520109 -0.262584 0.812734
outer loop
vertex -0.404955 0.703997 0.672488
vertex -0.324927 0.503939 0.556638
vertex -0.250056 0.899933 0.636665
endloop
endfacet
facet normal 0.805474 -0.155761 0.571795
outer loop
vertex -0.201274 0.598023 0.485704
vertex -0.169154 0.731303 0.476764
vertex -0.250056 0.899933 0.636665
endloop
endfacet
facet normal -0.850490 -0.092677 0.517762
outer loop
vertex -0.480305 0.241613 0.444611
vertex -0.642182 0.438678 0.213982
vertex -0.516926 0.102327 0.359525
endloop
endfacet
facet normal -0.678468 0.642180 0.356772
outer loop
vertex -0.516926 0.102327 0.359525
vertex -0.593115 0.148284 0.131917
vertex -0.626975 0.057642 0.230680
endloop
endfacet
facet normal -0.934709 0.200936 -0.293162
outer loop
vertex -0.610996 -0.105721 0.014828
vertex -0.593115 0.148284 0.131917
vertex -0.559269 0.134900 0.014828
endloop
endfacet
facet normal 0.955955 0.235627 -0.175014
outer loop
vertex -0.133696 0.498922 0.014828
vertex -0.107421 0.579681 0.267074
vertex -0.076780 0.268011 0.014828
endloop
endfacet
facet normal 0.896467 -0.189167 0.400703
outer loop
vertex -0.169154 0.731303 0.476764
vertex -0.201274 0.598023 0.485704
vertex -0.107421 0.579681 0.267074
endloop
endfacet
facet normal -0.589644 -0.118422 0.798934
outer loop
vertex -0.559106 0.494062 0.423872
vertex -0.480305 0.241613 0.444611
vertex -0.426587 0.476509 0.519074
endloop
endfacet
facet normal -0.137916 -0.544731 0.827192
outer loop
vertex -0.616529 0.638431 0.594036
vertex -0.426587 0.476509 0.519074
vertex -0.404955 0.703997 0.672488
endloop
endfacet
facet normal 0.756136 -0.526779 0.388282
outer loop
vertex -0.404955 0.703997 0.672488
vertex -0.250056 0.899933 0.636665
vertex -0.323929 0.882071 0.756291
endloop
endfacet
facet normal 0.940218 0.172783 0.293489
outer loop
vertex -0.169154 0.731303 0.476764
vertex -0.179196 0.930018 0.391947
vertex -0.250056 0.899933 0.636665
endloop
endfacet
facet normal -0.879103 -0.240607 0.411444
outer loop
vertex -0.559106 0.494062 0.423872
vertex -0.642182 0.438678 0.213982
vertex -0.480305 0.241613 0.444611
endloop
endfacet
facet normal -0.935336 -0.233213 0.266004
outer loop
vertex -0.642182 0.438678 0.213982
vertex -0.593115 0.148284 0.131917
vertex -0.516926 0.102327 0.359525
endloop
endfacet
facet normal -0.940260 -0.236665 -0.244745
outer loop
vertex -0.559269 0.134900 0.014828
vertex -0.593115 0.148284 0.131917
vertex -0.605538 0.318725 0.014828
endloop
endfacet
facet normal 0.995062 -0.020245 -0.097168
outer loop
vertex -0.126438 0.855677 0.014828
vertex -0.107421 0.579681 0.267074
vertex -0.133696 0.498922 0.014828
endloop
endfacet
facet normal 0.972684 0.130962 0.191662
outer loop
vertex -0.169154 0.731303 0.476764
vertex -0.107421 0.579681 0.267074
vertex -0.179196 0.930018 0.391947
endloop
endfacet
facet normal -0.448225 -0.750566 0.485535
outer loop
vertex -0.559106 0.494062 0.423872
vertex -0.426587 0.476509 0.519074
vertex -0.616529 0.638431 0.594036
endloop
endfacet
facet normal 0.105905 -0.884772 0.453830
outer loop
vertex -0.404955 0.703997 0.672488
vertex -0.705292 0.703012 0.740655
vertex -0.616529 0.638431 0.594036
endloop
endfacet
facet normal 0.535531 -0.546624 0.643746
outer loop
vertex -0.543869 0.733683 0.813258
vertex -0.404955 0.703997 0.672488
vertex -0.323929 0.882071 0.756291
endloop
endfacet
facet normal 0.848167 -0.186015 0.495996
outer loop
vertex -0.250056 0.899933 0.636665
vertex -0.334852 1.057207 0.840653
vertex -0.323929 0.882071 0.756291
endloop
endfacet
facet normal 0.866272 0.399504 0.299949
outer loop
vertex -0.179196 0.930018 0.391947
vertex -0.274986 1.056856 0.499657
vertex -0.250056 0.899933 0.636665
endloop
endfacet
facet normal -0.567796 -0.712252 0.412679
outer loop
vertex -0.559106 0.494062 0.423872
vertex -0.616529 0.638431 0.594036
vertex -0.642182 0.438678 0.213982
endloop
endfacet
facet normal -0.985478 -0.138915 -0.097655
outer loop
vertex -0.605538 0.318725 0.014828
vertex -0.593115 0.148284 0.131917
vertex -0.642182 0.438678 0.213982
endloop
endfacet
facet normal -0.985477 -0.138916 -0.097656
outer loop
vertex -0.642182 0.438678 0.213982
vertex -0.609524 0.346999 0.014828
vertex -0.605538 0.318725 0.014828
endloop
endfacet
facet normal 0.980933 0.163544 0.104992
outer loop
vertex -0.129165 0.872034 0.014828
vertex -0.179196 0.930018 0.391947
vertex -0.107421 0.579681 0.267074
endloop
endfacet
facet normal 0.980934 0.163543 0.104990
outer loop
vertex -0.107421 0.579681 0.267074
vertex -0.126438 0.855677 0.014828
vertex -0.129165 0.872034 0.014828
endloop
endfacet
facet normal 0.063402 -0.962038 0.265447
outer loop
vertex -0.543869 0.733683 0.813258
vertex -0.705292 0.703012 0.740655
vertex -0.404955 0.703997 0.672488
endloop
endfacet
facet normal -0.599390 -0.800390 -0.010326
outer loop
vertex -0.705292 0.703012 0.740655
vertex -0.749601 0.738572 0.556335
vertex -0.616529 0.638431 0.594036
endloop
endfacet
facet normal 0.471506 -0.396454 0.787722
outer loop
vertex -0.323929 0.882071 0.756291
vertex -0.536214 0.920454 0.902676
vertex -0.543869 0.733683 0.813258
endloop
endfacet
facet normal 0.947556 0.245507 0.204608
outer loop
vertex -0.318381 1.132971 0.673465
vertex -0.334852 1.057207 0.840653
vertex -0.250056 0.899933 0.636665
endloop
endfacet
facet normal 0.734535 -0.256748 0.628123
outer loop
vertex -0.323929 0.882071 0.756291
vertex -0.334852 1.057207 0.840653
vertex -0.429764 1.037940 0.943767
endloop
endfacet
facet normal 0.789822 0.613027 -0.019485
outer loop
vertex -0.179196 0.930018 0.391947
vertex -0.231539 0.990016 0.157883
vertex -0.274986 1.056856 0.499657
endloop
endfacet
facet normal 0.957257 0.260967 0.124719
outer loop
vertex -0.318381 1.132971 0.673465
vertex -0.250056 0.899933 0.636665
vertex -0.274986 1.056856 0.499657
endloop
endfacet
facet normal -0.882770 -0.388696 0.263881
outer loop
vertex -0.616529 0.638431 0.594036
vertex -0.737477 0.737655 0.335580
vertex -0.642182 0.438678 0.213982
endloop
endfacet
facet normal -0.815489 -0.564827 0.126286
outer loop
vertex -0.609524 0.346999 0.014828
vertex -0.642182 0.438678 0.213982
vertex -0.748370 0.577375 0.148608
endloop
endfacet
facet normal -0.815489 -0.564826 0.126286
outer loop
vertex -0.748370 0.577375 0.148608
vertex -0.621138 0.363769 0.014828
vertex -0.609524 0.346999 0.014828
endloop
endfacet
facet normal 0.754883 0.655859 -0.000693
outer loop
vertex -0.136164 0.880090 0.014828
vertex -0.231539 0.990016 0.157883
vertex -0.179196 0.930018 0.391947
endloop
endfacet
facet normal 0.754878 0.655865 -0.000693
outer loop
vertex -0.179196 0.930018 0.391947
vertex -0.129165 0.872034 0.014828
vertex -0.136164 0.880090 0.014828
endloop
endfacet
facet normal 0.102547 -0.977393 0.184900
outer loop
vertex -0.543869 0.733683 0.813258
vertex -0.688242 0.753884 1.000111
vertex -0.705292 0.703012 0.740655
endloop
endfacet
facet normal -0.938525 -0.301929 0.167362
outer loop
vertex -0.705292 0.703012 0.740655
vertex -0.806956 0.974110 0.659622
vertex -0.749601 0.738572 0.556335
endloop
endfacet
facet normal -0.595704 -0.802666 -0.029382
outer loop
vertex -0.749601 0.738572 0.556335
vertex -0.737477 0.737655 0.335580
vertex -0.616529 0.638431 0.594036
endloop
endfacet
facet normal 0.381417 -0.593474 0.708737
outer loop
vertex -0.429764 1.037940 0.943767
vertex -0.536214 0.920454 0.902676
vertex -0.323929 0.882071 0.756291
endloop
endfacet
facet normal 0.833928 -0.265746 0.483677
outer loop
vertex -0.536214 0.920454 0.902676
vertex -0.640381 0.801892 1.017134
vertex -0.543869 0.733683 0.813258
endloop
endfacet
facet normal 0.889608 0.376650 0.258328
outer loop
vertex -0.318381 1.132971 0.673465
vertex -0.377795 1.184636 0.802738
vertex -0.334852 1.057207 0.840653
endloop
endfacet
facet normal 0.597636 -0.681228 0.422801
outer loop
vertex -0.334852 1.057207 0.840653
vertex -0.357383 1.132459 0.993748
vertex -0.429764 1.037940 0.943767
endloop
endfacet
facet normal 0.690983 0.720914 -0.053149
outer loop
vertex -0.358149 1.131388 0.429407
vertex -0.274986 1.056856 0.499657
vertex -0.231539 0.990016 0.157883
endloop
endfacet
facet normal 0.717351 0.686064 -0.121337
outer loop
vertex -0.274986 1.056856 0.499657
vertex -0.358149 1.131388 0.429407
vertex -0.318381 1.132971 0.673465
endloop
endfacet
facet normal -0.807027 -0.424278 0.410726
outer loop
vertex -0.748370 0.577375 0.148608
vertex -0.642182 0.438678 0.213982
vertex -0.737477 0.737655 0.335580
endloop
endfacet
facet normal -0.866612 -0.498150 -0.028798
outer loop
vertex -0.621138 0.363769 0.014828
vertex -0.748370 0.577375 0.148608
vertex -0.747599 0.583768 0.014828
endloop
endfacet
facet normal 0.809389 -0.058247 0.584377
outer loop
vertex -0.130053 0.965009 0.014828
vertex -0.136641 1.203176 0.047692
vertex -0.231539 0.990016 0.157883
endloop
endfacet
facet normal 0.809389 -0.058247 0.584377
outer loop
vertex -0.231539 0.990016 0.157883
vertex -0.136164 0.880090 0.014828
vertex -0.130053 0.965009 0.014828
endloop
endfacet
facet normal 0.528165 -0.698010 0.483553
outer loop
vertex -0.543869 0.733683 0.813258
vertex -0.640381 0.801892 1.017134
vertex -0.688242 0.753884 1.000111
endloop
endfacet
facet normal -0.743020 -0.645859 0.175462
outer loop
vertex -0.705292 0.703012 0.740655
vertex -0.688242 0.753884 1.000111
vertex -0.698780 0.766007 1.000111
endloop
endfacet
facet normal -0.916372 -0.250246 0.312472
outer loop
vertex -0.769384 0.950164 0.750631
vertex -0.806956 0.974110 0.659622
vertex -0.705292 0.703012 0.740655
endloop
endfacet
facet normal -0.951107 -0.104083 -0.290795
outer loop
vertex -0.749601 0.738572 0.556335
vertex -0.806956 0.974110 0.659622
vertex -0.757993 0.868704 0.537205
endloop
endfacet
facet normal -0.982925 -0.176133 -0.053252
outer loop
vertex -0.749601 0.738572 0.556335
vertex -0.764731 0.885401 0.349958
vertex -0.737477 0.737655 0.335580
endloop
endfacet
facet normal -0.218970 -0.139367 0.965727
outer loop
vertex -0.536214 0.920454 0.902676
vertex -0.429764 1.037940 0.943767
vertex -0.525314 1.070840 0.926850
endloop
endfacet
facet normal 0.445724 0.387434 0.806985
outer loop
vertex -0.640381 0.801892 1.017134
vertex -0.536214 0.920454 0.902676
vertex -0.650919 0.814015 1.017134
endloop
endfacet
facet normal 0.502487 0.857339 -0.111702
outer loop
vertex -0.450509 1.198728 0.583798
vertex -0.377795 1.184636 0.802738
vertex -0.318381 1.132971 0.673465
endloop
endfacet
facet normal 0.948896 0.315217 -0.015295
outer loop
vertex -0.334852 1.057207 0.840653
vertex -0.377795 1.184636 0.802738
vertex -0.357383 1.132459 0.993748
endloop
endfacet
facet normal 0.057077 -0.500500 0.863853
outer loop
vertex -0.429764 1.037940 0.943767
vertex -0.357383 1.132459 0.993748
vertex -0.419926 1.128646 0.995671
endloop
endfacet
facet normal 0.438852 0.864394 -0.245422
outer loop
vertex -0.358149 1.131388 0.429407
vertex -0.231539 0.990016 0.157883
vertex -0.347288 1.036912 0.116078
endloop
endfacet
facet normal 0.489790 0.867644 -0.085436
outer loop
vertex -0.450509 1.198728 0.583798
vertex -0.318381 1.132971 0.673465
vertex -0.358149 1.131388 0.429407
endloop
endfacet
facet normal -0.988142 -0.083305 0.128983
outer loop
vertex -0.737477 0.737655 0.335580
vertex -0.766581 0.820889 0.166369
vertex -0.748370 0.577375 0.148608
endloop
endfacet
facet normal -0.947367 -0.319477 -0.020725
outer loop
vertex -0.747599 0.583768 0.014828
vertex -0.748370 0.577375 0.148608
vertex -0.870488 0.942228 0.106543
endloop
endfacet
facet normal -0.947368 -0.319474 -0.020721
outer loop
vertex -0.870488 0.942228 0.106543
vertex -0.764614 0.634222 0.014828
vertex -0.747599 0.583768 0.014828
endloop
endfacet
facet normal 0.926706 -0.026095 0.374880
outer loop
vertex -0.122047 1.249326 0.014828
vertex -0.136641 1.203176 0.047692
vertex -0.130053 0.965009 0.014828
endloop
endfacet
facet normal 0.292862 0.332959 0.896309
outer loop
vertex -0.251158 1.191231 0.089547
vertex -0.231539 0.990016 0.157883
vertex -0.136641 1.203176 0.047692
endloop
endfacet
facet normal -0.184261 -0.160164 0.969740
outer loop
vertex -0.650919 0.814015 1.017134
vertex -0.698780 0.766007 1.000111
vertex -0.688242 0.753884 1.000111
endloop
endfacet
facet normal -0.184257 -0.160162 0.969741
outer loop
vertex -0.688242 0.753884 1.000111
vertex -0.640381 0.801892 1.017134
vertex -0.650919 0.814015 1.017134
endloop
endfacet
facet normal -0.990723 -0.124252 0.055035
outer loop
vertex -0.708214 0.762379 0.822090
vertex -0.705292 0.703012 0.740655
vertex -0.698780 0.766007 1.000111
endloop
endfacet
facet normal -0.955420 -0.253846 0.150779
outer loop
vertex -0.705292 0.703012 0.740655
vertex -0.708214 0.762379 0.822090
vertex -0.769384 0.950164 0.750631
endloop
endfacet
facet normal -0.874137 0.237839 0.423459
outer loop
vertex -0.769384 0.950164 0.750631
vertex -0.754319 1.029240 0.737316
vertex -0.806956 0.974110 0.659622
endloop
endfacet
facet normal -0.997739 -0.059848 0.030565
outer loop
vertex -0.757993 0.868704 0.537205
vertex -0.764731 0.885401 0.349958
vertex -0.749601 0.738572 0.556335
endloop
endfacet
facet normal -0.900762 -0.434103 0.013502
outer loop
vertex -0.853867 1.069878 0.609090
vertex -0.757993 0.868704 0.537205
vertex -0.806956 0.974110 0.659622
endloop
endfacet
facet normal -0.840942 -0.103435 -0.531147
outer loop
vertex -0.764731 0.885401 0.349958
vertex -0.668148 0.971715 0.180235
vertex -0.737477 0.737655 0.335580
endloop
endfacet
facet normal -0.338688 -0.125350 0.932512
outer loop
vertex -0.603186 1.075322 0.899169
vertex -0.536214 0.920454 0.902676
vertex -0.525314 1.070840 0.926850
endloop
endfacet
facet normal -0.303233 -0.448281 0.840889
outer loop
vertex -0.419926 1.128646 0.995671
vertex -0.525314 1.070840 0.926850
vertex -0.429764 1.037940 0.943767
endloop
endfacet
facet normal 0.287694 0.540301 0.790764
outer loop
vertex -0.650919 0.814015 1.017134
vertex -0.536214 0.920454 0.902676
vertex -0.625356 0.933978 0.925867
endloop
endfacet
facet normal 0.198477 0.980101 -0.002834
outer loop
vertex -0.450509 1.198728 0.583798
vertex -0.525678 1.214288 0.700426
vertex -0.377795 1.184636 0.802738
endloop
endfacet
facet normal 0.993041 0.083152 -0.083404
outer loop
vertex -0.357383 1.132459 0.993748
vertex -0.377795 1.184636 0.802738
vertex -0.363152 1.184663 0.977106
endloop
endfacet
facet normal 0.010690 0.304791 0.952359
outer loop
vertex -0.357383 1.132459 0.993748
vertex -0.363152 1.184663 0.977106
vertex -0.419926 1.128646 0.995671
endloop
endfacet
facet normal 0.235367 0.932752 -0.273087
outer loop
vertex -0.358149 1.131388 0.429407
vertex -0.347288 1.036912 0.116078
vertex -0.514191 1.120859 0.258956
endloop
endfacet
facet normal -0.216624 0.294939 0.930637
outer loop
vertex -0.251158 1.191231 0.089547
vertex -0.347288 1.036912 0.116078
vertex -0.231539 0.990016 0.157883
endloop
endfacet
facet normal -0.030528 0.909359 -0.414892
outer loop
vertex -0.358149 1.131388 0.429407
vertex -0.622557 1.171883 0.537620
vertex -0.450509 1.198728 0.583798
endloop
endfacet
facet normal -0.792131 0.482615 0.373644
outer loop
vertex -0.766581 0.820889 0.166369
vertex -0.737477 0.737655 0.335580
vertex -0.668148 0.971715 0.180235
endloop
endfacet
facet normal -0.583453 -0.102397 0.805666
outer loop
vertex -0.766581 0.820889 0.166369
vertex -0.870488 0.942228 0.106543
vertex -0.748370 0.577375 0.148608
endloop
endfacet
facet normal -0.943857 -0.329854 0.018176
outer loop
vertex -0.764614 0.634222 0.014828
vertex -0.870488 0.942228 0.106543
vertex -0.839142 0.847480 0.014828
endloop
endfacet
facet normal 0.602611 0.327625 0.727683
outer loop
vertex -0.139362 1.281173 0.014828
vertex -0.256406 1.337288 0.086490
vertex -0.136641 1.203176 0.047692
endloop
endfacet
facet normal 0.602611 0.327626 0.727682
outer loop
vertex -0.136641 1.203176 0.047692
vertex -0.122047 1.249326 0.014828
vertex -0.139362 1.281173 0.014828
endloop
endfacet
facet normal 0.340171 0.031889 0.939823
outer loop
vertex -0.256406 1.337288 0.086490
vertex -0.251158 1.191231 0.089547
vertex -0.136641 1.203176 0.047692
endloop
endfacet
facet normal -0.710009 0.704115 0.010489
outer loop
vertex -0.698780 0.766007 1.000111
vertex -0.650919 0.814015 1.017134
vertex -0.648970 0.818099 0.874966
endloop
endfacet
facet normal -0.695381 0.718297 0.022213
outer loop
vertex -0.698780 0.766007 1.000111
vertex -0.648970 0.818099 0.874966
vertex -0.708214 0.762379 0.822090
endloop
endfacet
facet normal -0.690612 0.049602 0.721523
outer loop
vertex -0.708214 0.762379 0.822090
vertex -0.648970 0.818099 0.874966
vertex -0.769384 0.950164 0.750631
endloop
endfacet
facet normal -0.798813 0.244720 0.549554
outer loop
vertex -0.769384 0.950164 0.750631
vertex -0.719088 1.056134 0.776550
vertex -0.754319 1.029240 0.737316
endloop
endfacet
facet normal -0.787980 -0.103098 0.607008
outer loop
vertex -0.806956 0.974110 0.659622
vertex -0.754319 1.029240 0.737316
vertex -0.820661 1.150393 0.671772
endloop
endfacet
facet normal -0.942136 0.329210 0.063258
outer loop
vertex -0.714010 1.008206 0.466262
vertex -0.764731 0.885401 0.349958
vertex -0.757993 0.868704 0.537205
endloop
endfacet
facet normal -0.818443 -0.102596 0.565354
outer loop
vertex -0.820661 1.150393 0.671772
vertex -0.853867 1.069878 0.609090
vertex -0.806956 0.974110 0.659622
endloop
endfacet
facet normal -0.733476 -0.109866 -0.670777
outer loop
vertex -0.757993 0.868704 0.537205
vertex -0.853867 1.069878 0.609090
vertex -0.714010 1.008206 0.466262
endloop
endfacet
facet normal -0.864692 0.417039 -0.279975
outer loop
vertex -0.684150 1.049477 0.345485
vertex -0.668148 0.971715 0.180235
vertex -0.764731 0.885401 0.349958
endloop
endfacet
facet normal -0.211802 0.676455 0.705371
outer loop
vertex -0.525314 1.070840 0.926850
vertex -0.585007 1.205294 0.779984
vertex -0.603186 1.075322 0.899169
endloop
endfacet
facet normal 0.268909 0.137874 0.953246
outer loop
vertex -0.536214 0.920454 0.902676
vertex -0.603186 1.075322 0.899169
vertex -0.625356 0.933978 0.925867
endloop
endfacet
facet normal -0.431438 0.897333 -0.093032
outer loop
vertex -0.418656 1.119643 0.902950
vertex -0.525314 1.070840 0.926850
vertex -0.419926 1.128646 0.995671
endloop
endfacet
facet normal -0.979175 0.202874 -0.007599
outer loop
vertex -0.650919 0.814015 1.017134
vertex -0.625356 0.933978 0.925867
vertex -0.648970 0.818099 0.874966
endloop
endfacet
facet normal -0.100006 0.975764 -0.194636
outer loop
vertex -0.450509 1.198728 0.583798
vertex -0.622557 1.171883 0.537620
vertex -0.525678 1.214288 0.700426
endloop
endfacet
facet normal 0.079241 0.982231 0.170128
outer loop
vertex -0.585007 1.205294 0.779984
vertex -0.377795 1.184636 0.802738
vertex -0.525678 1.214288 0.700426
endloop
endfacet
facet normal -0.795154 0.602730 0.066681
outer loop
vertex -0.377795 1.184636 0.802738
vertex -0.418656 1.119643 0.902950
vertex -0.363152 1.184663 0.977106
endloop
endfacet
facet normal -0.712956 0.696921 -0.077426
outer loop
vertex -0.363152 1.184663 0.977106
vertex -0.418656 1.119643 0.902950
vertex -0.419926 1.128646 0.995671
endloop
endfacet
facet normal -0.062371 0.998043 -0.004552
outer loop
vertex -0.514191 1.120859 0.258956
vertex -0.560650 1.118812 0.446712
vertex -0.358149 1.131388 0.429407
endloop
endfacet
facet normal -0.066294 0.824547 -0.561897
outer loop
vertex -0.347288 1.036912 0.116078
vertex -0.630817 0.988233 0.078095
vertex -0.514191 1.120859 0.258956
endloop
endfacet
facet normal -0.143109 0.253617 0.956660
outer loop
vertex -0.334422 1.265174 0.057488
vertex -0.347288 1.036912 0.116078
vertex -0.251158 1.191231 0.089547
endloop
endfacet
facet normal -0.098546 0.828724 -0.550913
outer loop
vertex -0.560650 1.118812 0.446712
vertex -0.622557 1.171883 0.537620
vertex -0.358149 1.131388 0.429407
endloop
endfacet
facet normal -0.457295 0.219209 0.861875
outer loop
vertex -0.766581 0.820889 0.166369
vertex -0.668148 0.971715 0.180235
vertex -0.731544 0.995698 0.140498
endloop
endfacet
facet normal -0.304195 0.198845 0.931626
outer loop
vertex -0.870488 0.942228 0.106543
vertex -0.766581 0.820889 0.166369
vertex -0.731544 0.995698 0.140498
endloop
endfacet
facet normal -0.908718 -0.403622 0.106394
outer loop
vertex -0.839142 0.847480 0.014828
vertex -0.870488 0.942228 0.106543
vertex -0.942935 1.081161 0.014828
endloop
endfacet
facet normal 0.581360 0.713751 0.390617
outer loop
vertex -0.232662 1.357168 0.014828
vertex -0.256406 1.337288 0.086490
vertex -0.139362 1.281173 0.014828
endloop
endfacet
facet normal -0.353997 0.006854 0.935221
outer loop
vertex -0.334422 1.265174 0.057488
vertex -0.251158 1.191231 0.089547
vertex -0.256406 1.337288 0.086490
endloop
endfacet
facet normal -0.772524 -0.116743 0.624162
outer loop
vertex -0.648970 0.818099 0.874966
vertex -0.625356 0.933978 0.925867
vertex -0.769384 0.950164 0.750631
endloop
endfacet
facet normal -0.728509 0.184400 0.659751
outer loop
vertex -0.603186 1.075322 0.899169
vertex -0.719088 1.056134 0.776550
vertex -0.769384 0.950164 0.750631
endloop
endfacet
facet normal -0.803121 0.308196 0.509914
outer loop
vertex -0.754319 1.029240 0.737316
vertex -0.719088 1.056134 0.776550
vertex -0.714933 1.133761 0.736177
endloop
endfacet
facet normal -0.488085 0.193203 0.851144
outer loop
vertex -0.754319 1.029240 0.737316
vertex -0.714933 1.133761 0.736177
vertex -0.820661 1.150393 0.671772
endloop
endfacet
facet normal -0.896046 0.438111 -0.071831
outer loop
vertex -0.684150 1.049477 0.345485
vertex -0.764731 0.885401 0.349958
vertex -0.714010 1.008206 0.466262
endloop
endfacet
facet normal -0.735911 0.578011 -0.352616
outer loop
vertex -0.820661 1.150393 0.671772
vertex -0.730708 1.207850 0.578223
vertex -0.853867 1.069878 0.609090
endloop
endfacet
facet normal -0.584621 0.359094 -0.727509
outer loop
vertex -0.853867 1.069878 0.609090
vertex -0.730708 1.207850 0.578223
vertex -0.714010 1.008206 0.466262
endloop
endfacet
facet normal -0.521403 0.751538 -0.404141
outer loop
vertex -0.514191 1.120859 0.258956
vertex -0.668148 0.971715 0.180235
vertex -0.684150 1.049477 0.345485
endloop
endfacet
facet normal -0.160698 0.694604 0.701214
outer loop
vertex -0.585007 1.205294 0.779984
vertex -0.525314 1.070840 0.926850
vertex -0.418656 1.119643 0.902950
endloop
endfacet
facet normal -0.533563 0.610946 0.584855
outer loop
vertex -0.585007 1.205294 0.779984
vertex -0.714933 1.133761 0.736177
vertex -0.603186 1.075322 0.899169
endloop
endfacet
facet normal -0.740127 0.235094 0.630034
outer loop
vertex -0.603186 1.075322 0.899169
vertex -0.769384 0.950164 0.750631
vertex -0.625356 0.933978 0.925867
endloop
endfacet
facet normal -0.116826 0.975837 -0.184647
outer loop
vertex -0.525678 1.214288 0.700426
vertex -0.622557 1.171883 0.537620
vertex -0.672954 1.188209 0.655784
endloop
endfacet
facet normal -0.416139 0.884643 -0.210321
outer loop
vertex -0.525678 1.214288 0.700426
vertex -0.714933 1.133761 0.736177
vertex -0.585007 1.205294 0.779984
endloop
endfacet
facet normal 0.022744 0.834521 0.550507
outer loop
vertex -0.418656 1.119643 0.902950
vertex -0.377795 1.184636 0.802738
vertex -0.585007 1.205294 0.779984
endloop
endfacet
facet normal -0.426490 0.899413 -0.095726
outer loop
vertex -0.560650 1.118812 0.446712
vertex -0.514191 1.120859 0.258956
vertex -0.684150 1.049477 0.345485
endloop
endfacet
facet normal -0.158309 0.984174 -0.079618
outer loop
vertex -0.419499 1.017106 0.014828
vertex -0.630817 0.988233 0.078095
vertex -0.347288 1.036912 0.116078
endloop
endfacet
facet normal -0.158310 0.984174 -0.079618
outer loop
vertex -0.347288 1.036912 0.116078
vertex -0.365437 1.025802 0.014828
vertex -0.419499 1.017106 0.014828
endloop
endfacet
facet normal -0.658277 0.743081 -0.120423
outer loop
vertex -0.630817 0.988233 0.078095
vertex -0.668148 0.971715 0.180235
vertex -0.514191 1.120859 0.258956
endloop
endfacet
facet normal -0.981409 0.097720 0.165189
outer loop
vertex -0.365437 1.025802 0.014828
vertex -0.347288 1.036912 0.116078
vertex -0.334422 1.265174 0.057488
endloop
endfacet
facet normal -0.981409 0.097721 0.165187
outer loop
vertex -0.334422 1.265174 0.057488
vertex -0.359250 1.087937 0.014828
vertex -0.365437 1.025802 0.014828
endloop
endfacet
facet normal -0.491317 0.563908 -0.663788
outer loop
vertex -0.560650 1.118812 0.446712
vertex -0.714010 1.008206 0.466262
vertex -0.622557 1.171883 0.537620
endloop
endfacet
facet normal 0.213838 0.949010 0.231633
outer loop
vertex -0.668148 0.971715 0.180235
vertex -0.630817 0.988233 0.078095
vertex -0.731544 0.995698 0.140498
endloop
endfacet
facet normal -0.175551 -0.160621 0.971279
outer loop
vertex -0.870488 0.942228 0.106543
vertex -0.731544 0.995698 0.140498
vertex -0.885033 1.168338 0.141306
endloop
endfacet
facet normal -0.853294 -0.511572 -0.100914
outer loop
vertex -0.942935 1.081161 0.014828
vertex -0.870488 0.942228 0.106543
vertex -0.982935 1.135716 0.076490
endloop
endfacet
facet normal -0.853294 -0.511573 -0.100911
outer loop
vertex -0.982935 1.135716 0.076490
vertex -0.960178 1.109921 0.014828
vertex -0.942935 1.081161 0.014828
endloop
endfacet
facet normal -0.386086 0.913872 0.125596
outer loop
vertex -0.352354 1.306601 0.014828
vertex -0.256406 1.337288 0.086490
vertex -0.232662 1.357168 0.014828
endloop
endfacet
facet normal -0.626243 0.411086 0.662441
outer loop
vertex -0.361398 1.292824 0.014828
vertex -0.334422 1.265174 0.057488
vertex -0.256406 1.337288 0.086490
endloop
endfacet
facet normal -0.626245 0.411083 0.662441
outer loop
vertex -0.256406 1.337288 0.086490
vertex -0.352354 1.306601 0.014828
vertex -0.361398 1.292824 0.014828
endloop
endfacet
facet normal -0.706282 0.356046 0.611880
outer loop
vertex -0.719088 1.056134 0.776550
vertex -0.603186 1.075322 0.899169
vertex -0.714933 1.133761 0.736177
endloop
endfacet
facet normal -0.165485 0.854528 0.492337
outer loop
vertex -0.714933 1.133761 0.736177
vertex -0.672954 1.188209 0.655784
vertex -0.820661 1.150393 0.671772
endloop
endfacet
facet normal -0.567902 0.811626 0.136932
outer loop
vertex -0.714010 1.008206 0.466262
vertex -0.560650 1.118812 0.446712
vertex -0.684150 1.049477 0.345485
endloop
endfacet
facet normal -0.192048 0.907784 0.372888
outer loop
vertex -0.730708 1.207850 0.578223
vertex -0.820661 1.150393 0.671772
vertex -0.672954 1.188209 0.655784
endloop
endfacet
facet normal -0.168240 0.471424 -0.865711
outer loop
vertex -0.730708 1.207850 0.578223
vertex -0.622557 1.171883 0.537620
vertex -0.714010 1.008206 0.466262
endloop
endfacet
facet normal -0.282669 0.856267 0.432326
outer loop
vertex -0.672954 1.188209 0.655784
vertex -0.714933 1.133761 0.736177
vertex -0.525678 1.214288 0.700426
endloop
endfacet
facet normal 0.316967 0.948427 0.004153
outer loop
vertex -0.672954 1.188209 0.655784
vertex -0.622557 1.171883 0.537620
vertex -0.730708 1.207850 0.578223
endloop
endfacet
facet normal -0.106425 0.989658 0.096183
outer loop
vertex -0.626690 0.994825 0.014828
vertex -0.630817 0.988233 0.078095
vertex -0.419499 1.017106 0.014828
endloop
endfacet
facet normal -0.847756 -0.008887 0.530312
outer loop
vertex -0.359250 1.087937 0.014828
vertex -0.334422 1.265174 0.057488
vertex -0.361398 1.292824 0.014828
endloop
endfacet
facet normal 0.211444 0.950525 0.227584
outer loop
vertex -0.767044 1.033685 0.014828
vertex -0.731544 0.995698 0.140498
vertex -0.630817 0.988233 0.078095
endloop
endfacet
facet normal 0.211444 0.950520 0.227604
outer loop
vertex -0.630817 0.988233 0.078095
vertex -0.750024 1.029898 0.014828
vertex -0.767044 1.033685 0.014828
endloop
endfacet
facet normal -0.506389 -0.162766 0.846804
outer loop
vertex -0.870488 0.942228 0.106543
vertex -0.885033 1.168338 0.141306
vertex -0.982935 1.135716 0.076490
endloop
endfacet
facet normal 0.531263 0.469029 0.705529
outer loop
vertex -0.798163 1.141245 0.093905
vertex -0.885033 1.168338 0.141306
vertex -0.731544 0.995698 0.140498
endloop
endfacet
facet normal -0.735787 0.483757 -0.473916
outer loop
vertex -0.960178 1.109921 0.014828
vertex -0.982935 1.135716 0.076490
vertex -0.886795 1.221536 0.014828
endloop
endfacet
facet normal 0.271643 0.955228 0.117256
outer loop
vertex -0.750024 1.029898 0.014828
vertex -0.630817 0.988233 0.078095
vertex -0.626690 0.994825 0.014828
endloop
endfacet
facet normal 0.916384 0.372634 -0.146231
outer loop
vertex -0.773377 1.049258 0.014828
vertex -0.798163 1.141245 0.093905
vertex -0.731544 0.995698 0.140498
endloop
endfacet
facet normal 0.916384 0.372635 -0.146233
outer loop
vertex -0.731544 0.995698 0.140498
vertex -0.767044 1.033685 0.014828
vertex -0.773377 1.049258 0.014828
endloop
endfacet
facet normal -0.593117 0.438769 0.675051
outer loop
vertex -0.896001 1.248854 0.079335
vertex -0.982935 1.135716 0.076490
vertex -0.885033 1.168338 0.141306
endloop
endfacet
facet normal 0.524212 0.563104 0.638839
outer loop
vertex -0.885033 1.168338 0.141306
vertex -0.798163 1.141245 0.093905
vertex -0.896001 1.248854 0.079335
endloop
endfacet
facet normal -0.738671 0.576374 -0.349511
outer loop
vertex -0.886795 1.221536 0.014828
vertex -0.982935 1.135716 0.076490
vertex -0.896001 1.248854 0.079335
endloop
endfacet
facet normal -0.738673 0.576373 -0.349509
outer loop
vertex -0.896001 1.248854 0.079335
vertex -0.869295 1.243964 0.014828
vertex -0.886795 1.221536 0.014828
endloop
endfacet
facet normal 0.897326 0.400760 -0.184924
outer loop
vertex -0.852472 1.226357 0.014828
vertex -0.798163 1.141245 0.093905
vertex -0.773377 1.049258 0.014828
endloop
endfacet
facet normal 0.701940 0.670664 0.239769
outer loop
vertex -0.869295 1.243964 0.014828
vertex -0.896001 1.248854 0.079335
vertex -0.798163 1.141245 0.093905
endloop
endfacet
facet normal 0.701932 0.670670 0.239777
outer loop
vertex -0.798163 1.141245 0.093905
vertex -0.852472 1.226357 0.014828
vertex -0.869295 1.243964 0.014828
endloop
endfacet
facet normal 0.000000 0.000000 -1.000000
outer loop
vertex -0.352354 1.306601 0.014828
vertex -0.359250 1.087937 0.014828
vertex -0.361398 1.292824 0.014828
endloop
endfacet
facet normal 0.000001 0.000000 -1.000000
outer loop
vertex -0.767044 1.033685 0.014828
vertex -0.750024 1.029898 0.014828
vertex -0.626690 0.994825 0.014828
endloop
endfacet
facet normal 0.000000 0.000000 -1.000000
outer loop
vertex -0.352354 1.306601 0.014828
vertex -0.232662 1.357168 0.014828
vertex -0.359250 1.087937 0.014828
endloop
endfacet
facet normal -0.000001 0.000000 -1.000000
outer loop
vertex -0.852472 1.226357 0.014828
vertex -0.773377 1.049258 0.014828
vertex -0.767044 1.033685 0.014828
endloop
endfacet
facet normal -0.000000 0.000000 -1.000000
outer loop
vertex -0.232662 1.357168 0.014828
vertex -0.365437 1.025802 0.014828
vertex -0.359250 1.087937 0.014828
endloop
endfacet
facet normal 0.000000 0.000000 -1.000000
outer loop
vertex -0.869295 1.243964 0.014828
vertex -0.852472 1.226357 0.014828
vertex -0.767044 1.033685 0.014828
endloop
endfacet
facet normal -0.000000 0.000000 -1.000000
outer loop
vertex -0.232662 1.357168 0.014828
vertex -0.139362 1.281173 0.014828
vertex -0.365437 1.025802 0.014828
endloop
endfacet
facet normal 0.000000 0.000000 -1.000000
outer loop
vertex -0.886795 1.221536 0.014828
vertex -0.869295 1.243964 0.014828
vertex -0.767044 1.033685 0.014828
endloop
endfacet
facet normal 0.000000 0.000000 -1.000000
outer loop
vertex -0.139362 1.281173 0.014828
vertex -0.122047 1.249326 0.014828
vertex -0.365437 1.025802 0.014828
endloop
endfacet
facet normal 0.000000 0.000000 -1.000000
outer loop
vertex -0.960178 1.109921 0.014828
vertex -0.886795 1.221536 0.014828
vertex -0.767044 1.033685 0.014828
endloop
endfacet
facet normal 0.000000 0.000000 -1.000000
outer loop
vertex -0.122047 1.249326 0.014828
vertex -0.130053 0.965009 0.014828
vertex -0.365437 1.025802 0.014828
endloop
endfacet
facet normal 0.000000 0.000000 -1.000000
outer loop
vertex -0.942935 1.081161 0.014828
vertex -0.960178 1.109921 0.014828
vertex -0.767044 1.033685 0.014828
endloop
endfacet
facet normal 0.000000 0.000000 -1.000000
outer loop
vertex -0.130053 0.965009 0.014828
vertex -0.419499 1.017106 0.014828
vertex -0.365437 1.025802 0.014828
endloop
endfacet
facet normal 0.000000 0.000000 -1.000000
outer loop
vertex -0.942935 1.081161 0.014828
vertex -0.767044 1.033685 0.014828
vertex -0.626690 0.994825 0.014828
endloop
endfacet
facet normal 0.000000 0.000000 -1.000000
outer loop
vertex -0.130053 0.965009 0.014828
vertex -0.626690 0.994825 0.014828
vertex -0.419499 1.017106 0.014828
endloop
endfacet
facet normal 0.000000 0.000000 -1.000000
outer loop
vertex -0.136164 0.880090 0.014828
vertex -0.129165 0.872034 0.014828
vertex -0.126438 0.855677 0.014828
endloop
endfacet
facet normal 0.000000 0.000000 -1.000000
outer loop
vertex -0.130053 0.965009 0.014828
vertex -0.136164 0.880090 0.014828
vertex -0.626690 0.994825 0.014828
endloop
endfacet
facet normal -0.000000 0.000000 -1.000000
outer loop
vertex -0.839142 0.847480 0.014828
vertex -0.942935 1.081161 0.014828
vertex -0.626690 0.994825 0.014828
endloop
endfacet
facet normal 0.000000 0.000000 -1.000000
outer loop
vertex -0.621138 0.363769 0.014828
vertex -0.747599 0.583768 0.014828
vertex -0.764614 0.634222 0.014828
endloop
endfacet
facet normal 0.000000 0.000000 -1.000000
outer loop
vertex -0.764614 0.634222 0.014828
vertex -0.839142 0.847480 0.014828
vertex -0.626690 0.994825 0.014828
endloop
endfacet
facet normal 0.000000 0.000000 -1.000000
outer loop
vertex -0.136164 0.880090 0.014828
vertex -0.126438 0.855677 0.014828
vertex -0.626690 0.994825 0.014828
endloop
endfacet
facet normal 0.000002 0.000000 -1.000000
outer loop
vertex -0.133696 0.498922 0.014828
vertex -0.076780 0.268011 0.014828
vertex -0.072903 0.251629 0.014828
endloop
endfacet
facet normal -0.000000 0.000000 -1.000000
outer loop
vertex -0.126438 0.855677 0.014828
vertex -0.133696 0.498922 0.014828
vertex -0.626690 0.994825 0.014828
endloop
endfacet
facet normal -0.000000 0.000000 -1.000000
outer loop
vertex -0.621138 0.363769 0.014828
vertex -0.764614 0.634222 0.014828
vertex -0.626690 0.994825 0.014828
endloop
endfacet
facet normal 0.000000 0.000000 -1.000000
outer loop
vertex -0.559269 0.134900 0.014828
vertex -0.605538 0.318725 0.014828
vertex -0.609524 0.346999 0.014828
endloop
endfacet
facet normal 0.000000 0.000000 -1.000000
outer loop
vertex -0.609524 0.346999 0.014828
vertex -0.621138 0.363769 0.014828
vertex -0.626690 0.994825 0.014828
endloop
endfacet
facet normal 0.000000 0.000000 -1.000000
outer loop
vertex -0.133696 0.498922 0.014828
vertex -0.072903 0.251629 0.014828
vertex -0.626690 0.994825 0.014828
endloop
endfacet
facet normal 0.000000 0.000000 -1.000000
outer loop
vertex -0.072903 0.251629 0.014828
vertex -0.067160 0.247833 0.014828
vertex 0.089327 0.097213 0.014828
endloop
endfacet
facet normal 0.000000 0.000000 -1.000000
outer loop
vertex 0.114361 -0.170514 0.014828
vertex 0.118749 -0.189479 0.014828
vertex 0.030443 -0.366783 0.014828
endloop
endfacet
facet normal -0.000000 0.000000 -1.000000
outer loop
vertex -0.072903 0.251629 0.014828
vertex 0.089327 0.097213 0.014828
vertex 0.114361 -0.170514 0.014828
endloop
endfacet
facet normal 0.000000 0.000000 -1.000000
outer loop
vertex -0.072903 0.251629 0.014828
vertex -0.609524 0.346999 0.014828
vertex -0.626690 0.994825 0.014828
endloop
endfacet
facet normal 0.000000 0.000000 -1.000000
outer loop
vertex -0.614144 -0.125333 0.014828
vertex -0.610996 -0.105721 0.014828
vertex -0.559269 0.134900 0.014828
endloop
endfacet
facet normal -0.000000 0.000000 -1.000000
outer loop
vertex -0.072903 0.251629 0.014828
vertex -0.559269 0.134900 0.014828
vertex -0.609524 0.346999 0.014828
endloop
endfacet
facet normal 0.000000 0.000000 -1.000000
outer loop
vertex -0.072903 0.251629 0.014828
vertex 0.114361 -0.170514 0.014828
vertex 0.030443 -0.366783 0.014828
endloop
endfacet
facet normal -0.000000 0.000000 -1.000000
outer loop
vertex 0.030443 -0.366783 0.014828
vertex 0.015003 -0.388218 0.014828
vertex 0.012788 -0.386428 0.014828
endloop
endfacet
facet normal 0.000000 0.000000 -1.000000
outer loop
vertex -0.054226 -0.733513 0.014828
vertex -0.028903 -0.762130 0.014828
vertex -0.040493 -0.834562 0.014828
endloop
endfacet
facet normal 0.000000 0.000000 -1.000000
outer loop
vertex -0.072903 0.251629 0.014828
vertex 0.030443 -0.366783 0.014828
vertex 0.012788 -0.386428 0.014828
endloop
endfacet
facet normal 0.000000 0.000000 -1.000000
outer loop
vertex -0.065367 -0.706815 0.014828
vertex -0.054226 -0.733513 0.014828
vertex -0.040493 -0.834562 0.014828
endloop
endfacet
facet normal -0.000000 0.000000 -1.000000
outer loop
vertex -0.072903 0.251629 0.014828
vertex 0.012788 -0.386428 0.014828
vertex -0.060737 -0.585621 0.014828
endloop
endfacet
facet normal -0.000001 0.000000 -1.000000
outer loop
vertex -0.076918 -0.654139 0.014828
vertex -0.065367 -0.706815 0.014828
vertex -0.040493 -0.834562 0.014828
endloop
endfacet
facet normal 0.000000 0.000000 -1.000000
outer loop
vertex -0.072903 0.251629 0.014828
vertex -0.060737 -0.585621 0.014828
vertex -0.076918 -0.654139 0.014828
endloop
endfacet
facet normal 0.000000 0.000000 -1.000000
outer loop
vertex -0.072903 0.251629 0.014828
vertex -0.614144 -0.125333 0.014828
vertex -0.559269 0.134900 0.014828
endloop
endfacet
facet normal 0.000000 0.000000 -1.000000
outer loop
vertex -0.606337 -0.152320 0.014828
vertex -0.612694 -0.145093 0.014828
vertex -0.614144 -0.125333 0.014828
endloop
endfacet
facet normal 0.000000 0.000000 -1.000000
outer loop
vertex -0.408361 -0.475740 0.014828
vertex -0.414205 -0.474086 0.014828
vertex -0.606337 -0.152320 0.014828
endloop
endfacet
facet normal 0.000000 0.000000 -1.000000
outer loop
vertex -0.291298 -0.541091 0.014828
vertex -0.406043 -0.479981 0.014828
vertex -0.408361 -0.475740 0.014828
endloop
endfacet
facet normal 0.000000 0.000000 -1.000000
outer loop
vertex -0.155058 -0.796318 0.014828
vertex -0.186513 -0.755615 0.014828
vertex -0.193458 -0.727487 0.014828
endloop
endfacet
facet normal 0.000000 0.000000 -1.000000
outer loop
vertex -0.291298 -0.541091 0.014828
vertex -0.408361 -0.475740 0.014828
vertex -0.606337 -0.152320 0.014828
endloop
endfacet
facet normal -0.000001 0.000000 -1.000000
outer loop
vertex -0.155058 -0.796318 0.014828
vertex -0.193458 -0.727487 0.014828
vertex -0.291298 -0.541091 0.014828
endloop
endfacet
facet normal 0.000000 0.000000 -1.000000
outer loop
vertex 0.045730 -1.171419 0.014828
vertex -0.082984 -1.029808 0.014828
vertex -0.155058 -0.796318 0.014828
endloop
endfacet
facet normal 0.000000 0.000000 -1.000000
outer loop
vertex 0.383292 -1.333033 0.014828
vertex 0.094360 -1.213292 0.014828
vertex 0.045730 -1.171419 0.014828
endloop
endfacet
facet normal 0.000000 0.000000 -1.000000
outer loop
vertex 0.431644 -1.345658 0.014828
vertex 0.414131 -1.343436 0.014828
vertex 0.383292 -1.333033 0.014828
endloop
endfacet
facet normal -0.000000 0.000000 -1.000000
outer loop
vertex 0.731902 -1.282419 0.014828
vertex 0.671719 -1.417646 0.014828
vertex 0.431644 -1.345658 0.014828
endloop
endfacet
facet normal 0.000020 0.000000 -1.000000
outer loop
vertex 0.729815 -1.273628 0.014828
vertex 0.730928 -1.277964 0.014828
vertex 0.731902 -1.282419 0.014828
endloop
endfacet
facet normal 0.000000 0.000000 -1.000000
outer loop
vertex 0.430151 -1.138086 0.014828
vertex 0.470801 -1.160143 0.014828
vertex 0.486863 -1.173166 0.014828
endloop
endfacet
facet normal 0.000000 0.000000 -1.000000
outer loop
vertex 0.486863 -1.173166 0.014828
vertex 0.729815 -1.273628 0.014828
vertex 0.731902 -1.282419 0.014828
endloop
endfacet
facet normal 0.000000 0.000000 -1.000000
outer loop
vertex 0.731902 -1.282419 0.014828
vertex 0.431644 -1.345658 0.014828
vertex 0.383292 -1.333033 0.014828
endloop
endfacet
facet normal -0.000000 0.000000 -1.000000
outer loop
vertex 0.383292 -1.333033 0.014828
vertex 0.045730 -1.171419 0.014828
vertex -0.155058 -0.796318 0.014828
endloop
endfacet
facet normal 0.000000 0.000000 -1.000000
outer loop
vertex -0.291298 -0.541091 0.014828
vertex -0.606337 -0.152320 0.014828
vertex -0.614144 -0.125333 0.014828
endloop
endfacet
facet normal 0.000000 0.000000 -1.000000
outer loop
vertex 0.383292 -1.333033 0.014828
vertex -0.155058 -0.796318 0.014828
vertex -0.291298 -0.541091 0.014828
endloop
endfacet
facet normal -0.000000 0.000000 -1.000000
outer loop
vertex 0.486863 -1.173166 0.014828
vertex 0.731902 -1.282419 0.014828
vertex 0.383292 -1.333033 0.014828
endloop
endfacet
facet normal -0.000000 0.000000 -1.000000
outer loop
vertex 0.231028 -1.035590 0.014828
vertex 0.430151 -1.138086 0.014828
vertex 0.486863 -1.173166 0.014828
endloop
endfacet
facet normal 0.000000 0.000000 -1.000000
outer loop
vertex -0.072903 0.251629 0.014828
vertex -0.076918 -0.654139 0.014828
vertex -0.614144 -0.125333 0.014828
endloop
endfacet
facet normal 0.000000 0.000000 -1.000000
outer loop
vertex 0.231028 -1.035590 0.014828
vertex 0.486863 -1.173166 0.014828
vertex 0.383292 -1.333033 0.014828
endloop
endfacet
facet normal 0.000000 0.000000 -1.000000
outer loop
vertex -0.076918 -0.654139 0.014828
vertex -0.040493 -0.834562 0.014828
vertex -0.614144 -0.125333 0.014828
endloop
endfacet
facet normal 0.000000 0.000000 -1.000000
outer loop
vertex 0.206003 -1.020804 0.014828
vertex 0.231028 -1.035590 0.014828
vertex 0.383292 -1.333033 0.014828
endloop
endfacet
facet normal 0.000000 0.000000 -1.000000
outer loop
vertex -0.040493 -0.834562 0.014828
vertex -0.291298 -0.541091 0.014828
vertex -0.614144 -0.125333 0.014828
endloop
endfacet
facet normal 0.000000 0.000000 -1.000000
outer loop
vertex -0.022331 -0.851536 0.014828
vertex 0.206003 -1.020804 0.014828
vertex 0.383292 -1.333033 0.014828
endloop
endfacet
facet normal 0.000003 0.000000 -1.000000
outer loop
vertex -0.040493 -0.834562 0.014828
vertex 0.383292 -1.333033 0.014828
vertex -0.291298 -0.541091 0.014828
endloop
endfacet
facet normal -0.000001 0.000000 -1.000000
outer loop
vertex -0.040493 -0.834562 0.014828
vertex -0.022331 -0.851536 0.014828
vertex 0.383292 -1.333033 0.014828
endloop
endfacet
endsolid Exported from Blender-2.79 (sub 0)
